<?xml version="1.0" ?><svg viewBox="0 0 64 64" xmlns="http://www.w3.org/2000/svg"><defs><style>.cls-1{fill:#a8b0bc;}.cls-2{fill:#cbd0d7;}.cls-3{fill:#7fcdee;}.cls-4{fill:#b2e1f5;}.cls-5{fill:#758190;}.cls-6{fill:#919aa6;}.cls-7{fill:#fff;}.cls-8{fill:#ed5c58;}.cls-9{fill:none;stroke:#000;stroke-linejoin:round;stroke-width:2px;}</style></defs><title/><g data-name="Layer 27" id="Layer_27"><rect class="cls-1" height="40" width="52" x="6" y="22"/><path class="cls-2" d="M6,57.634A57.311,57.311,0,0,0,53.209,22H6Z"/><rect class="cls-3" height="16" width="52" x="6" y="26"/><path class="cls-4" d="M51.443,26H6V42H39.714A56.192,56.192,0,0,0,51.443,26Z"/><rect class="cls-5" height="14" width="60" x="2" y="8"/><path class="cls-6" d="M56.667,8H2V22H53.209A54.416,54.416,0,0,0,56.667,8Z"/><rect class="cls-7" height="16" width="16" x="12" y="46"/><rect class="cls-7" height="16" width="16" x="36" y="46"/><polygon class="cls-8" points="39 16 25 16 27 2 37 2 39 16"/><polyline class="cls-9" points="38 8 62 8 62 22 2 22 2 8 26 8"/><polyline class="cls-9" points="6 22 6 62 58 62 58 22"/><polyline class="cls-9" points="12 62 12 46 28 46 28 62"/><line class="cls-9" x1="20" x2="20" y1="46" y2="62"/><polyline class="cls-9" points="36 62 36 46 52 46 52 62"/><line class="cls-9" x1="44" x2="44" y1="46" y2="62"/><line class="cls-9" x1="6" x2="58" y1="42" y2="42"/><line class="cls-9" x1="6" x2="58" y1="26" y2="26"/><line class="cls-9" x1="14" x2="22" y1="38" y2="30"/><line class="cls-9" x1="28" x2="36" y1="38" y2="30"/><line class="cls-9" x1="42" x2="50" y1="38" y2="30"/><polygon class="cls-9" points="39 16 25 16 27 2 37 2 39 16"/><path class="cls-9" d="M30,5V7a2,2,0,0,0,2,2h0a2,2,0,0,0,2-2V5"/></g></svg>